<svg height="50" viewBox="0 0 50 50" width="50" xmlns="http://www.w3.org/2000/svg"><g fill="#464342"><path d="m3.5398374 24.902439c0 8.4560976 4.91422764 15.7638212 12.0402439 19.2268293l-10.19065041-27.9211382c-1.18536585 2.6569106-1.84959349 5.5971545-1.84959349 8.6943089z"/><path d="m39.3252033 23.8243902c0-2.6402439-.948374-4.4686991-1.7617887-5.8918699-1.0829268-1.7597561-2.0979674-3.25-2.0979674-5.0097561 0-1.9638211 1.4894308-3.79186989 3.5873983-3.79186989.0947155 0 .1845529.01178862.2768293.01707317-3.800813-3.48211382-8.8646341-5.60813008-14.4264228-5.60813008-7.4634146 0-14.0296748 3.82926829-17.84959346 9.6292683.50121951.0150406.97357723.0256097 1.37479674.0256097 2.23455282 0 5.69349592-.2711382 5.69349592-.2711382 1.151626-.0678861 1.2873984 1.6235773.1369919 1.7597561 0 0-1.1573171.1361789-2.445122.2036586l7.7796748 23.1402439 4.6752033-14.0215447-3.3284553-9.1195122c-1.1504065-.0674797-2.2402439-.2036586-2.2402439-.2036586-1.1512195-.0674796-1.0162602-1.8276423.1349593-1.7597561 0 0 3.5280488.2711382 5.6272358.2711382 2.2341464 0 5.693496-.2711382 5.693496-.2711382 1.152439-.0678862 1.2878048 1.6235773.1369918 1.7597561 0 0-1.1597561.1361789-2.4451219.2036586l7.7203252 22.9650406 2.1308943-7.1207317c.9235772-2.954878 1.6264228-5.0772358 1.6264228-6.9060976z"/><path d="m25.2780488 26.7711382-6.4097561 18.6256098c1.9138211.5626016 3.9378049.8703252 6.0349593.8703252 2.4878049 0 4.8735773-.4300813 7.094309-1.2109756-.0573171-.0914635-.1093496-.1886179-.1520325-.294309z"/><path d="m43.6487805 14.6528455c.0918699.6804878.1439024 1.4109756.1439024 2.196748 0 2.1678862-.404878 4.604878-1.6243902 7.6520325l-6.5256098 18.8670732c6.3512195-3.7036585 10.6231709-10.5845529 10.6231709-18.4658537.0004064-3.7142276-.9483741-7.2069105-2.6170733-10.25z"/><path d="m24.903252 0c-13.7313008 0-24.903252 11.1711382-24.903252 24.902439 0 13.7329269 11.1719512 24.9036586 24.903252 24.9036586 13.7308943 0 24.9044716-11.1707317 24.9044716-24.9036586 0-13.7313008-11.1735773-24.902439-24.9044716-24.902439zm0 48.6646341c-13.101626 0-23.76138208-10.6597561-23.76138208-23.7621951 0-13.101626 10.65934958-23.76056908 23.76138208-23.76056908 13.1012195 0 23.7601626 10.65894308 23.7601626 23.76056908 0 13.102439-10.6589431 23.7621951-23.7601626 23.7621951z"/></g></svg>