<svg height="50" viewBox="0 0 50 50" width="50" xmlns="http://www.w3.org/2000/svg"><path d="m44.7232804 14.1413158c1.7544974 3.1844737 2.7529101 6.8389474 2.7529101 10.7263158 0 8.2486842-4.4939154 15.4502631-11.1761905 19.3257895l6.8650794-19.7447369c1.2822751-3.1897368 1.7092592-5.7402631 1.7092592-8.0081579 0-.8231579-.0544973-1.5871052-.1510582-2.2992105zm-16.6259259.243421c1.3531746-.0707894 2.5724868-.2123684 2.5724868-.2123684 1.2111111-.1426316 1.0682539-1.9131579-.1433863-1.8426316 0 0-3.6407407.2842106-5.9910053.2842106-2.2084656 0-5.9195767-.2842106-5.9195767-.2842106-1.2121693-.0705263-1.3542328 1.7713158-.1425926 1.8426316 0 0 1.1465609.141579 2.357672.2123684l3.5015873 9.5444737-4.9195767 14.6744737-8.1846561-24.2189474c1.3542328-.0707894 2.5722222-.2123684 2.5722222-.2123684 1.2103175-.1426316 1.0674603-1.9131579-.1436508-1.8426316 0 0-3.6399471.2842106-5.99047618.2842106-.42169313 0-.91878307-.0102632-1.44656085-.0271053 4.01904763-6.06947368 10.92698413-10.07763157 18.77989413-10.07763157 5.8513228 0 11.1793651 2.22552631 15.1780424 5.87026315-.0968254-.00578947-.1912699-.01789473-.2910053-.01789473-2.2079365 0-3.7746032 1.91315785-3.7746032 3.96815785 0 1.8426316 1.0687831 3.401579 2.2079365 5.2439474.8547619 1.4892105 1.8531746 3.4021053 1.8531746 6.1663158 0 1.9134211-.7399471 4.1342105-1.7103174 7.2278947l-2.2425926 7.4513158zm-3.0976191 32.8431579c-2.2063492 0-4.3357142-.3218421-6.35-.9110526l6.744709-19.493421 6.9084657 18.8286842c.0455026.1105263.1013227.2123684.1608465.3081579-2.3362434.8181579-4.8465608 1.2676315-7.4640212 1.2676315zm-22.47671953-22.3602631c0-3.241579.6989418-6.3186842 1.9462963-9.0992105l10.72195763 29.2215789c-7.49867721-3.6236842-12.66825393-11.2723684-12.66825393-20.1223684zm22.47671953-24.8676316c-13.7849206 0-24.9997354 11.1555263-24.9997354 24.8676316 0 13.7126316 11.2148148 24.8694737 24.9997354 24.8694737 13.7846561 0 25-11.1568421 25-24.8694737 0-13.7121053-11.2153439-24.8676316-25-24.8676316z" fill-rule="evenodd"/></svg>